<?xml version="1.0" encoding="UTF-8" standalone="no"?>
<!-- Created with Inkscape (http://www.inkscape.org/) -->

<svg
   version="1.1"
   id="svg1"
   width="99"
   height="48"
   viewBox="0 0 99 48"
   sodipodi:docname="upload_765iqraw6omrq6tk62bbk7ccx5.pdf"
   xmlns:inkscape="http://www.inkscape.org/namespaces/inkscape"
   xmlns:sodipodi="http://sodipodi.sourceforge.net/DTD/sodipodi-0.dtd"
   xmlns="http://www.w3.org/2000/svg"
   xmlns:svg="http://www.w3.org/2000/svg">
  <defs
     id="defs1" />
  <sodipodi:namedview
     id="namedview1"
     pagecolor="#ffffff"
     bordercolor="#000000"
     borderopacity="0.25"
     inkscape:showpageshadow="2"
     inkscape:pageopacity="0.0"
     inkscape:pagecheckerboard="0"
     inkscape:deskcolor="#d1d1d1">
    <inkscape:page
       x="0"
       y="0"
       inkscape:label="1"
       id="page1"
       width="99"
       height="48"
       margin="0"
       bleed="0" />
  </sodipodi:namedview>
  <g
     id="g1"
     inkscape:groupmode="layer"
     inkscape:label="1">
 <!-- O  -->
  <path
       id="path1"
       d="m 49.648,12.098 c -2.32,0.004 -4.414,1.406 -5.3,3.554 -0.883,2.149 -0.391,4.618 1.254,6.258 1.644,1.641 4.113,2.129 6.257,1.242 2.149,-0.89 3.547,-2.984 3.547,-5.308 0,-0.028 0,-0.055 0,-0.078 0.004,-1.5 -0.586,-2.938 -1.644,-4 -1.055,-1.063 -2.492,-1.664 -3.989,-1.668 z m 0,9.777 c -2.164,-0.063 -3.867,-1.871 -3.8,-4.035 0,-0.028 0,-0.051 0,-0.074 -0.153,-5.067 7.445,-5.293 7.597,-0.227 0,0.074 0,0.149 0,0.227 0.106,2.16 -1.558,3.996 -3.718,4.105 z"
       style="fill:#191919;fill-opacity:1;fill-rule:nonzero;stroke:none"
       transform="scale(1.3333333)" />
  <!-- S -->
    <path
       id="path2"
       d="m 61.699,17.043 c -1.14,-0.473 -2.125,-0.879 -2.125,-1.785 0.09,-0.891 0.891,-1.535 1.781,-1.43 0.907,0.035 1.774,0.363 2.477,0.938 l 0.813,-1.524 c -0.911,-0.769 -2.079,-1.176 -3.27,-1.144 -2.113,0 -3.703,1.375 -3.703,3.191 0,1.91 1.672,2.629 3.144,3.266 1.168,0.504 2.176,0.937 2.176,1.859 -0.039,0.891 -0.832,1.559 -1.719,1.445 -1.035,-0.05 -2.027,-0.457 -2.8,-1.148 l -1.024,1.414 c 1.031,0.957 2.387,1.48 3.793,1.465 2.141,0 3.641,-1.324 3.641,-3.223 0,-2.012 -1.688,-2.711 -3.184,-3.324 z"
       style="fill:#191919;fill-opacity:1;fill-rule:nonzero;stroke:none"
       transform="scale(1.3333333)" />
    <!-- T -->
    <path
       id="path3"
       d="m 74.25,12.289 h -7.215 v 1.555 h 2.715 v 9.554 h 1.766 v -9.554 h 2.734 z"
       style="fill:#191919;fill-opacity:1;fill-rule:nonzero;stroke:none"
       transform="scale(1.3333333)" />
    <!-- Black ring -->
    <path
       id="path4"
       d="M 30.832,5.324 C 25.707,0.145 17.961,-1.438 11.215,1.32 4.469,4.078 0.047,10.629 0.012,17.918 c -0.032,7.289 4.332,13.879 11.054,16.695 6.723,2.817 14.481,1.305 19.657,-3.832 l 0.062,-0.062 c 3.266,-3.258 8.957,-7.758 8.957,-12.719 0,-4.938 -5.676,-9.418 -8.91,-12.676 z M 29.93,28.215 c -2.703,2.703 -6.371,4.223 -10.196,4.223 -0.449,0 -0.886,-0.028 -1.324,-0.067 -0.222,-0.019 -0.441,-0.047 -0.66,-0.074 -0.438,0.058 -0.879,0.101 -1.324,0.121 -0.219,0.012 -0.442,0.016 -0.664,0.016 -7.953,0 -14.399,-6.446 -14.399,-14.399 0,-7.953 6.446,-14.398 14.399,-14.398 0.226,0 0.441,0.008 0.66,0.015 0.453,0.02 0.89,0.067 1.328,0.125 0.219,-0.031 0.438,-0.058 0.66,-0.078 0.438,-0.039 0.879,-0.062 1.324,-0.062 3.844,-0.004 7.532,1.531 10.235,4.261 2.586,2.606 7.125,6.188 7.125,10.141 0,3.965 -4.555,7.566 -7.164,10.176 z"
       style="fill:#191919;fill-opacity:1;fill-rule:nonzero;stroke:none"
       transform="scale(1.3333333)" />
    <!-- Inner dark red right -->
    <path
       id="path5"
       d="M 29.965,7.898 C 27.262,5.168 23.578,3.633 19.734,3.637 19.07,3.621 18.406,3.668 17.746,3.777 c 3.469,0.317 7.25,1.785 9.574,4.125 2.586,2.602 7.125,6.188 7.125,10.141 0,3.969 -4.554,7.566 -7.168,10.176 -2.66,2.656 -6.082,3.765 -9.531,4.082 0.66,0.101 1.324,0.148 1.988,0.14 3.825,0 7.489,-1.519 10.192,-4.226 2.609,-2.61 7.164,-6.207 7.164,-10.176 C 37.094,14.086 32.555,10.5 29.965,7.898 Z"
       style="fill:#8c195f;fill-opacity:1;fill-rule:nonzero;stroke:none"
       transform="scale(1.3333333)" />
    <!-- Inner light red right -->
    <path
       id="path6"
       d="m 17.746,3.777 c 3.129,0.434 6.027,1.883 8.25,4.125 2.59,2.602 7.125,6.188 7.125,10.141 0,3.969 -4.555,7.57 -7.164,10.176 -2.219,2.219 -5.102,3.652 -8.207,4.082 3.406,-0.301 6.926,-1.449 9.531,-4.082 2.606,-2.633 7.164,-6.207 7.164,-10.176 0,-3.953 -4.535,-7.535 -7.125,-10.141 -2.324,-2.34 -6.101,-3.804 -9.57,-4.125"
       style="fill:#d72864;fill-opacity:1;fill-rule:nonzero;stroke:none"
       transform="scale(1.3333333)" />
    <!-- Inner dark red left -->
    <path
       id="path7"
       d="m 2.664,18.035 c 0,-7.719 6.215,-14.047 15.082,-14.262 -0.656,-0.093 -1.32,-0.14 -1.984,-0.14 -7.953,0 -14.403,6.449 -14.403,14.402 0,7.953 6.45,14.399 14.403,14.399 0.664,0.031 1.332,-0.016 1.984,-0.141 C 10.129,32.504 2.664,25.754 2.664,18.035 Z"
       style="fill:#8c195f;fill-opacity:1;fill-rule:nonzero;stroke:none"
       transform="scale(1.3333333)" />
    <!-- Inner light red left -->
    <path
       id="path8"
       d="M 5.312,18.035 C 5.309,10.84 10.617,4.75 17.746,3.773 8.879,3.984 2.664,10.316 2.664,18.035 c 0,7.719 7.453,14.469 15.082,14.262 C 10.629,31.305 5.324,25.223 5.312,18.035 Z"
       style="fill:#d72864;fill-opacity:1;fill-rule:nonzero;stroke:none"
       transform="scale(1.3333333)" />
  </g>
</svg>
